<?xml version="1.0" encoding="UTF-8"?>
<!DOCTYPE svg PUBLIC "-//W3C//DTD SVG 1.1//EN" "http://www.w3.org/Graphics/SVG/1.1/DTD/svg11.dtd">
<svg xmlns="http://www.w3.org/2000/svg" version="1.1" width="512px" height="512px" style="shape-rendering:geometricPrecision; text-rendering:geometricPrecision; image-rendering:optimizeQuality; fill-rule:evenodd; clip-rule:evenodd" xmlns:xlink="http://www.w3.org/1999/xlink">
<g><path style="opacity:0.999" fill="#0000aa" d="M 40.5,-0.5 C 183.833,-0.5 327.167,-0.5 470.5,-0.5C 491.833,5.5 505.5,19.1667 511.5,40.5C 511.5,183.833 511.5,327.167 511.5,470.5C 505.5,491.833 491.833,505.5 470.5,511.5C 327.167,511.5 183.833,511.5 40.5,511.5C 19.1667,505.5 5.5,491.833 -0.5,470.5C -0.5,327.167 -0.5,183.833 -0.5,40.5C 5.5,19.1667 19.1667,5.5 40.5,-0.5 Z"/></g>
<g><path style="opacity:1" fill="#fbfbfd" d="M 99.5,194.5 C 106.508,194.334 113.508,194.5 120.5,195C 132.306,198.434 137.14,206.268 135,218.5C 131.334,227.088 124.834,231.922 115.5,233C 104.698,234.38 94.1984,233.213 84,229.5C 83.1667,229.833 82.3333,230.167 81.5,230.5C 71.9465,247.874 69.4465,266.207 74,285.5C 79.852,296.504 89.0187,300.67 101.5,298C 114.574,295.051 125.074,288.218 133,277.5C 133.957,269.963 136.123,262.797 139.5,256C 137.681,253.511 135.848,251.011 134,248.5C 131.047,235.206 136.214,230.373 149.5,234C 154.346,238.036 157.68,243.036 159.5,249C 167.834,249.944 175.501,248.111 182.5,243.5C 184.728,244.219 186.561,245.552 188,247.5C 189.774,250.715 191.274,254.048 192.5,257.5C 188.38,270.315 185.046,283.315 182.5,296.5C 184.989,296.702 187.323,296.202 189.5,295C 193,291.5 196.5,288 200,284.5C 202.424,269.817 208.924,257.317 219.5,247C 228.478,239.232 238.811,236.565 250.5,239C 261.213,243.61 264.379,251.444 260,262.5C 257.5,266.333 254.333,269.5 250.5,272C 242.167,275.5 233.833,279 225.5,282.5C 223.068,290.136 225.735,294.97 233.5,297C 249.196,299.405 260.363,293.572 267,279.5C 270.133,276.133 273.466,275.799 277,278.5C 279.196,283.42 281.196,288.42 283,293.5C 288.076,299.582 294.576,302.249 302.5,301.5C 302.245,298.984 301.411,296.65 300,294.5C 293.667,287.5 287.333,280.5 281,273.5C 275.239,257.524 280.072,246.024 295.5,239C 304.941,236.443 313.941,237.443 322.5,242C 330.242,256.438 326.576,267.104 311.5,274C 316.104,278.603 319.938,283.77 323,289.5C 324.486,298.376 321.653,305.542 314.5,311C 299.43,318.263 284.43,318.263 269.5,311C 267.667,309.167 265.833,307.333 264,305.5C 250.164,314.483 234.997,317.65 218.5,315C 211.838,312.669 206.671,308.503 203,302.5C 194.903,313.142 184.403,316.976 171.5,314C 165.493,308.313 162.827,301.313 163.5,293C 163.907,283.021 166.241,273.521 170.5,264.5C 166.015,264.359 161.348,264.359 156.5,264.5C 155.495,269.522 154.328,274.522 153,279.5C 152.959,289.835 152.959,300.168 153,310.5C 148.048,317.479 141.714,319.146 134,315.5C 132.488,310.607 131.488,305.607 131,300.5C 117.051,313.481 100.551,318.648 81.5,316C 57.3562,311.548 45.6895,297.048 46.5,272.5C 46.9312,251.703 53.5979,233.203 66.5,217C 61.3155,211.475 58.8155,204.975 59,197.5C 61.2096,196.251 63.3763,196.418 65.5,198C 68.682,201.349 72.0154,204.516 75.5,207.5C 82.71,201.564 90.71,197.231 99.5,194.5 Z"/></g>
<g><path style="opacity:1" fill="#1c11ae" d="M 107.5,209.5 C 116.361,208.823 119.027,212.323 115.5,220C 109.947,221.57 104.281,221.903 98.5,221C 95.9899,220.624 93.6565,219.79 91.5,218.5C 95.7211,213.393 101.054,210.393 107.5,209.5 Z"/></g>
<g><path style="opacity:1" fill="#fbfbfd" d="M 366.5,238.5 C 371.93,238.161 377.264,238.661 382.5,240C 385.589,241.764 386.922,244.43 386.5,248C 386.582,252.761 384.915,256.761 381.5,260C 380.167,260.667 378.833,260.667 377.5,260C 368.805,252.919 362.639,254.753 359,265.5C 355.514,274.333 354.847,283.333 357,292.5C 363.197,298.104 370.031,298.937 377.5,295C 382.301,291.201 386.801,287.034 391,282.5C 392.323,262.335 402.156,248.168 420.5,240C 433.028,237.008 445.028,238.341 456.5,244C 458.527,245.396 458.86,247.062 457.5,249C 449.776,249.726 442.11,250.726 434.5,252C 416.432,260.874 410.932,274.708 418,293.5C 425.755,300.546 434.255,301.379 443.5,296C 434.304,288.758 430.804,279.258 433,267.5C 438.593,254.63 448.093,250.463 461.5,255C 468.221,261.416 470.388,269.25 468,278.5C 467.166,281.172 466.332,283.839 465.5,286.5C 467.837,287.512 470.17,287.345 472.5,286C 476.626,283.538 480.459,280.705 484,277.5C 484.772,277.645 485.439,277.978 486,278.5C 488.02,293.809 481.353,301.809 466,302.5C 463.135,302.395 460.301,302.062 457.5,301.5C 441.309,318.081 422.976,320.914 402.5,310C 398.938,306.942 395.938,303.442 393.5,299.5C 379.04,316.225 361.707,320.059 341.5,311C 334.424,305.616 331.09,298.449 331.5,289.5C 333.063,265.321 344.73,248.321 366.5,238.5 Z"/></g>
<g><path style="opacity:1" fill="#160ead" d="M 299.5,251.5 C 313.259,251.134 315.259,256.134 305.5,266.5C 299.664,262.568 297.664,257.568 299.5,251.5 Z"/></g>
<g><path style="opacity:1" fill="#1a10ad" d="M 233.5,252.5 C 243.205,253.823 244.205,257.989 236.5,265C 233.076,267.551 229.41,269.218 225.5,270C 226.149,263.211 228.815,257.378 233.5,252.5 Z"/></g>
<g><path style="opacity:1" fill="#1810ad" d="M 452.5,266.5 C 454.144,266.286 455.644,266.62 457,267.5C 457.866,272.709 457.199,277.709 455,282.5C 453.615,281.449 452.615,280.116 452,278.5C 451.238,274.413 451.404,270.413 452.5,266.5 Z"/></g>
</svg>
